# Blender3D v249 OBJ File: untitled.blend
# www.blender3d.org
mtllib cube.mtl
v 1 -1 -1 
v -1 -1 1 
v -1 -1 -1 
v -1 1 -1 
v 0.5 0.5 -1 
v -1 0 1 
v -0.5 -0.5 1 
v 1 0 -1 
v 0 1 -1 
v -1 1 0 
v -0.5 1 -0.5 
v 1 -1 0 
v 0 -1 1 
vt 0.748573 0.750412
vn -1 -0 -0
vn -0 0 1
vn 1 0 -0
vn 0 1 -0
vn -0 -1 -0
vn 0.57735 0.57735 0.57735
vn -0 -0 -1
usemtl Material_ray.png
s off
f 2/1/1 4/1/1 3/1/1 
f 7/1/2 2/1/2 13/1/2 
f 6/1/2 2/1/2 7/1/2 
f 1/1/3 8/1/3 12/1/3 
f 9/1/4 4/1/4 11/1/4 
f 4/1/4 10/1/4 11/1/4 
f 1/1/5 2/1/5 3/1/5 
f 5/1/6 6/1/6 8/1/6 
f 8/1/7 1/1/7 3/1/7 
f 3/1/7 5/1/7 8/1/7 
f 5/1/7 3/1/7 4/1/7 
f 4/1/7 9/1/7 5/1/7 
f 2/1/1 6/1/1 10/1/1 
f 10/1/1 4/1/1 2/1/1 
f 1/1/5 12/1/5 13/1/5 
f 13/1/5 2/1/5 1/1/5 
f 5/1/6 9/1/6 11/1/6 
f 11/1/6 10/1/6 6/1/6 
f 6/1/6 7/1/6 13/1/6 
f 13/1/6 12/1/6 8/1/6 
f 5/1/6 11/1/6 6/1/6 
f 6/1/6 13/1/6 8/1/6 
