# Blender3D v249 OBJ File: untitled.blend
# www.blender3d.org
mtllib cube.mtl
v 0.5 0.5 1 
v 1 0 1 
v 1 1 0 
v -2.22045e-16 1 1 
v 0.5 1 0.5 
v -1 -0.5 0.5 
v -0.5 -1 0.5 
v -1 -1 0 
v 0 -1 1 
v -1 2.22045e-16 1 
v -0.5 -0.5 1 
v -0.666667 -0.333333 1 
v 2.22045e-16 1 -1 
v -0.5 1 -0.5 
v -0.666667 1 -0.333333 
v -1 1 2.22045e-16 
v -1 0.666667 -0.333333 
v -1 0.5 -0.5 
v -1 0 -1 
v 1 0 -1 
v 1 -1 0 
v 0.666667 -1 -0.333333 
v 0.5 -1 -0.5 
v -2.22045e-16 -1 -1 
v 0.333333 -1 -0.666667 
v 0.75 -0.25 1 
v 1 -0.5 0.5 
v 1 -0.666667 0.333333 
v 1 0.666667 -0.333333 
v 0.333333 0.666667 -1 
v 0.75 1 -0.25 
v 0.25 1 -0.75 
v 0.5 0.5 -1 
v 0.666667 0.333333 -1 
v 1 0.5 -0.5 
v -1 -0.75 -0.25 
v -0.5 -0.5 -1 
vt 0.748573 0.750412
vn 0.57735 0.57735 0.57735
vn 0 0 1
vn 1 0 0
vn 0 1 0
vn -1 0 -0
vn -0.57735 -0.57735 0.57735
vn 0 0 -1
vn -0.57735 0.57735 -0.57735
vn 0.57735 -0.57735 -0.57735
vn 0 -1 0
vn -0.57735 0.57735 0.57735
vn 0.57735 -0.57735 0.57735
vn 0.57735 0.57735 -0.57735
vn -0.57735 -0.57735 -0.57735
usemtl Material_ray.png
s off
f 1/1/1 3/1/1 4/1/1 
f 2/1/2 1/1/2 26/1/2 
f 3/1/3 2/1/3 29/1/3 
f 5/1/4 3/1/4 31/1/4 
f 1/1/1 2/1/1 3/1/1 
f 3/1/10 5/1/10 4/1/10 
f 8/1/5 6/1/5 36/1/5 
f 1/1/2 11/1/2 9/1/2 
f 9/1/2 26/1/2 1/1/2 
f 10/1/2 12/1/2 4/1/2 
f 11/1/2 1/1/2 4/1/2 
f 4/1/2 12/1/2 11/1/2 
f 6/1/6 8/1/6 7/1/6 
f 7/1/6 9/1/6 11/1/6 
f 11/1/2 12/1/2 10/1/2 
f 6/1/6 7/1/6 11/1/6 
f 11/1/6 10/1/6 6/1/6 
f 19/1/7 13/1/7 30/1/7 
f 13/1/4 14/1/4 32/1/4 
f 4/1/4 15/1/4 16/1/4 
f 4/1/4 5/1/4 14/1/4 
f 14/1/4 15/1/4 4/1/4 
f 16/1/5 17/1/5 10/1/5 
f 18/1/5 6/1/5 10/1/5 
f 10/1/5 17/1/5 18/1/5 
f 6/1/5 18/1/5 19/1/5 
f 19/1/5 36/1/5 6/1/5 
f 13/1/8 19/1/8 18/1/8 
f 18/1/3 17/1/3 16/1/3 
f 16/1/10 15/1/10 14/1/10 
f 13/1/8 18/1/8 16/1/8 
f 16/1/4 14/1/4 13/1/4 
f 20/1/9 22/1/9 25/1/9 
f 20/1/7 24/1/7 34/1/7 
f 21/1/3 20/1/3 28/1/3 
f 9/1/10 22/1/10 21/1/10 
f 9/1/10 7/1/10 23/1/10 
f 23/1/10 22/1/10 9/1/10 
f 23/1/10 7/1/10 8/1/10 
f 8/1/10 25/1/10 23/1/10 
f 24/1/10 25/1/10 8/1/10 
f 20/1/9 21/1/9 22/1/9 
f 22/1/9 23/1/9 25/1/9 
f 25/1/9 24/1/9 20/1/9 
f 4/1/11 16/1/11 10/1/11 
f 2/1/12 9/1/12 28/1/12 
f 20/1/3 35/1/3 27/1/3 
f 27/1/3 28/1/3 20/1/3 
f 2/1/3 26/1/3 9/1/3 
f 9/1/12 21/1/12 28/1/12 
f 28/1/5 27/1/5 2/1/5 
f 3/1/13 34/1/13 32/1/13 
f 2/1/3 27/1/3 35/1/3 
f 35/1/3 29/1/3 2/1/3 
f 33/1/7 37/1/7 19/1/7 
f 19/1/7 30/1/7 33/1/7 
f 14/1/4 5/1/4 31/1/4 
f 31/1/4 32/1/4 14/1/4 
f 24/1/7 37/1/7 33/1/7 
f 33/1/7 34/1/7 24/1/7 
f 3/1/3 29/1/3 35/1/3 
f 35/1/13 20/1/13 34/1/13 
f 34/1/13 33/1/13 30/1/13 
f 30/1/13 13/1/13 32/1/13 
f 32/1/4 31/1/4 3/1/4 
f 3/1/13 35/1/13 34/1/13 
f 34/1/13 30/1/13 32/1/13 
f 8/1/14 19/1/14 24/1/14 
f 8/1/5 36/1/5 19/1/5 
f 19/1/7 37/1/7 24/1/7 
